<mxfile host="app.diagrams.net" agent="Mozilla/5.0 (Windows NT 10.0; Win64; x64) AppleWebKit/537.36 (KHTML, like Gecko) Chrome/129.0.0.0 Safari/537.36" version="24.7.17">
  <diagram name="Page-1" id="Eugs2Rs0GLY2QKZXMPd0">
    <mxGraphModel dx="2350" dy="1907" grid="1" gridSize="10" guides="1" tooltips="1" connect="1" arrows="1" fold="1" page="1" pageScale="1" pageWidth="850" pageHeight="1100" math="0" shadow="0">
      <root>
        <mxCell id="0" />
        <mxCell id="1" parent="0" />
        <mxCell id="LoWKn4hJgZCwYZn794fp-9" style="edgeStyle=orthogonalEdgeStyle;rounded=0;orthogonalLoop=1;jettySize=auto;html=1;strokeColor=#666666;startArrow=classic;startFill=1;fillColor=#f5f5f5;shape=link;" edge="1" parent="1" source="LoWKn4hJgZCwYZn794fp-1" target="LoWKn4hJgZCwYZn794fp-2">
          <mxGeometry relative="1" as="geometry" />
        </mxCell>
        <mxCell id="LoWKn4hJgZCwYZn794fp-10" value="1. Send Events" style="edgeLabel;html=1;align=center;verticalAlign=middle;resizable=0;points=[];" vertex="1" connectable="0" parent="LoWKn4hJgZCwYZn794fp-9">
          <mxGeometry x="0.0165" y="-1" relative="1" as="geometry">
            <mxPoint x="-1" as="offset" />
          </mxGeometry>
        </mxCell>
        <mxCell id="LoWKn4hJgZCwYZn794fp-1" value="Windows 10 Client&lt;div&gt;Wazuh Agent&lt;/div&gt;&lt;div&gt;&lt;br&gt;&lt;/div&gt;" style="fontColor=#0066CC;verticalAlign=top;verticalLabelPosition=bottom;labelPosition=center;align=center;html=1;outlineConnect=0;fillColor=#CCCCCC;strokeColor=#6881B3;gradientColor=none;gradientDirection=north;strokeWidth=2;shape=mxgraph.networks.pc;" vertex="1" parent="1">
          <mxGeometry x="310" y="500" width="100" height="70" as="geometry" />
        </mxCell>
        <mxCell id="LoWKn4hJgZCwYZn794fp-11" style="edgeStyle=orthogonalEdgeStyle;rounded=0;orthogonalLoop=1;jettySize=auto;html=1;fillColor=#f5f5f5;strokeColor=#666666;shape=link;" edge="1" parent="1" source="LoWKn4hJgZCwYZn794fp-2" target="LoWKn4hJgZCwYZn794fp-3">
          <mxGeometry relative="1" as="geometry" />
        </mxCell>
        <mxCell id="LoWKn4hJgZCwYZn794fp-2" value="Router" style="sketch=0;outlineConnect=0;fontColor=#232F3E;gradientColor=none;fillColor=#8C4FFF;strokeColor=none;dashed=0;verticalLabelPosition=bottom;verticalAlign=top;align=center;html=1;fontSize=12;fontStyle=0;aspect=fixed;pointerEvents=1;shape=mxgraph.aws4.router;" vertex="1" parent="1">
          <mxGeometry x="320" y="270" width="78" height="78" as="geometry" />
        </mxCell>
        <mxCell id="LoWKn4hJgZCwYZn794fp-12" style="edgeStyle=orthogonalEdgeStyle;rounded=0;orthogonalLoop=1;jettySize=auto;html=1;shape=link;fillColor=#f5f5f5;strokeColor=#666666;" edge="1" parent="1" source="LoWKn4hJgZCwYZn794fp-3" target="LoWKn4hJgZCwYZn794fp-5">
          <mxGeometry relative="1" as="geometry" />
        </mxCell>
        <mxCell id="LoWKn4hJgZCwYZn794fp-13" value="2. Receive Events" style="edgeLabel;html=1;align=center;verticalAlign=middle;resizable=0;points=[];" vertex="1" connectable="0" parent="LoWKn4hJgZCwYZn794fp-12">
          <mxGeometry x="0.1639" y="2" relative="1" as="geometry">
            <mxPoint x="-1" as="offset" />
          </mxGeometry>
        </mxCell>
        <mxCell id="LoWKn4hJgZCwYZn794fp-3" value="Internet&lt;div&gt;&lt;br&gt;&lt;/div&gt;" style="image;aspect=fixed;perimeter=ellipsePerimeter;html=1;align=center;shadow=0;dashed=0;spacingTop=3;image=img/lib/active_directory/internet_cloud.svg;" vertex="1" parent="1">
          <mxGeometry x="298.89" y="80" width="111.11" height="70" as="geometry" />
        </mxCell>
        <mxCell id="LoWKn4hJgZCwYZn794fp-4" value="TheHive&lt;div&gt;&lt;br&gt;&lt;/div&gt;" style="image;aspect=fixed;perimeter=ellipsePerimeter;html=1;align=center;shadow=0;dashed=0;spacingTop=3;image=img/lib/active_directory/internet_cloud.svg;" vertex="1" parent="1">
          <mxGeometry x="630" y="100" width="111.11" height="70" as="geometry" />
        </mxCell>
        <mxCell id="LoWKn4hJgZCwYZn794fp-16" style="rounded=0;orthogonalLoop=1;jettySize=auto;html=1;entryX=0;entryY=0.5;entryDx=0;entryDy=0;shape=link;fillColor=#dae8fc;strokeColor=#6c8ebf;" edge="1" parent="1" source="LoWKn4hJgZCwYZn794fp-5" target="LoWKn4hJgZCwYZn794fp-6">
          <mxGeometry relative="1" as="geometry" />
        </mxCell>
        <mxCell id="LoWKn4hJgZCwYZn794fp-17" value="3. Send alerts" style="edgeLabel;html=1;align=center;verticalAlign=middle;resizable=0;points=[];" vertex="1" connectable="0" parent="LoWKn4hJgZCwYZn794fp-16">
          <mxGeometry x="0.0915" y="-1" relative="1" as="geometry">
            <mxPoint as="offset" />
          </mxGeometry>
        </mxCell>
        <mxCell id="LoWKn4hJgZCwYZn794fp-5" value="&lt;div&gt;Wazuh Manager&lt;/div&gt;&lt;div&gt;&lt;br&gt;&lt;/div&gt;" style="image;aspect=fixed;perimeter=ellipsePerimeter;html=1;align=center;shadow=0;dashed=0;spacingTop=3;image=img/lib/active_directory/internet_cloud.svg;" vertex="1" parent="1">
          <mxGeometry x="10" y="80" width="111.11" height="70" as="geometry" />
        </mxCell>
        <mxCell id="LoWKn4hJgZCwYZn794fp-21" style="rounded=0;orthogonalLoop=1;jettySize=auto;html=1;entryX=0;entryY=0;entryDx=0;entryDy=0;shape=link;fillColor=#dae8fc;strokeColor=#6c8ebf;" edge="1" parent="1" source="LoWKn4hJgZCwYZn794fp-6" target="LoWKn4hJgZCwYZn794fp-4">
          <mxGeometry relative="1" as="geometry" />
        </mxCell>
        <mxCell id="LoWKn4hJgZCwYZn794fp-22" value="5. Send alerts" style="edgeLabel;html=1;align=center;verticalAlign=middle;resizable=0;points=[];" vertex="1" connectable="0" parent="LoWKn4hJgZCwYZn794fp-21">
          <mxGeometry x="-0.0677" y="-3" relative="1" as="geometry">
            <mxPoint as="offset" />
          </mxGeometry>
        </mxCell>
        <mxCell id="LoWKn4hJgZCwYZn794fp-6" value="&lt;div&gt;Shuffle&lt;/div&gt;" style="image;aspect=fixed;perimeter=ellipsePerimeter;html=1;align=center;shadow=0;dashed=0;spacingTop=3;image=img/lib/active_directory/internet_cloud.svg;" vertex="1" parent="1">
          <mxGeometry x="304.45" y="-110" width="111.11" height="70" as="geometry" />
        </mxCell>
        <mxCell id="LoWKn4hJgZCwYZn794fp-25" style="rounded=0;orthogonalLoop=1;jettySize=auto;html=1;shape=link;fillColor=#fff2cc;strokeColor=#d6b656;" edge="1" parent="1" source="LoWKn4hJgZCwYZn794fp-7" target="LoWKn4hJgZCwYZn794fp-3">
          <mxGeometry relative="1" as="geometry" />
        </mxCell>
        <mxCell id="LoWKn4hJgZCwYZn794fp-26" value="7. Send &amp;amp; Receive Email" style="edgeLabel;html=1;align=center;verticalAlign=middle;resizable=0;points=[];" vertex="1" connectable="0" parent="LoWKn4hJgZCwYZn794fp-25">
          <mxGeometry x="-0.03" y="1" relative="1" as="geometry">
            <mxPoint as="offset" />
          </mxGeometry>
        </mxCell>
        <mxCell id="LoWKn4hJgZCwYZn794fp-7" value="&lt;div&gt;SOC Analyst&lt;/div&gt;&lt;div&gt;&lt;br&gt;&lt;/div&gt;" style="fontColor=#0066CC;verticalAlign=top;verticalLabelPosition=bottom;labelPosition=center;align=center;html=1;outlineConnect=0;fillColor=#CCCCCC;strokeColor=#6881B3;gradientColor=none;gradientDirection=north;strokeWidth=2;shape=mxgraph.networks.pc;" vertex="1" parent="1">
          <mxGeometry x="610" y="290" width="100" height="70" as="geometry" />
        </mxCell>
        <mxCell id="LoWKn4hJgZCwYZn794fp-18" style="edgeStyle=orthogonalEdgeStyle;rounded=0;orthogonalLoop=1;jettySize=auto;html=1;entryX=0.55;entryY=0.143;entryDx=0;entryDy=0;entryPerimeter=0;shape=link;fillColor=#d5e8d4;strokeColor=#82b366;" edge="1" parent="1" source="LoWKn4hJgZCwYZn794fp-6" target="LoWKn4hJgZCwYZn794fp-3">
          <mxGeometry relative="1" as="geometry" />
        </mxCell>
        <mxCell id="LoWKn4hJgZCwYZn794fp-19" value="4. Enrich IOCS" style="edgeLabel;html=1;align=center;verticalAlign=middle;resizable=0;points=[];" vertex="1" connectable="0" parent="LoWKn4hJgZCwYZn794fp-18">
          <mxGeometry x="-0.0776" y="-1" relative="1" as="geometry">
            <mxPoint y="-3" as="offset" />
          </mxGeometry>
        </mxCell>
        <mxCell id="LoWKn4hJgZCwYZn794fp-23" style="rounded=0;orthogonalLoop=1;jettySize=auto;html=1;entryX=0.82;entryY=0.286;entryDx=0;entryDy=0;entryPerimeter=0;shape=link;fillColor=#fff2cc;strokeColor=#d6b656;" edge="1" parent="1" source="LoWKn4hJgZCwYZn794fp-6" target="LoWKn4hJgZCwYZn794fp-3">
          <mxGeometry relative="1" as="geometry">
            <Array as="points">
              <mxPoint x="420" y="30" />
            </Array>
          </mxGeometry>
        </mxCell>
        <mxCell id="LoWKn4hJgZCwYZn794fp-24" value="6. Send Email" style="edgeLabel;html=1;align=center;verticalAlign=middle;resizable=0;points=[];" vertex="1" connectable="0" parent="LoWKn4hJgZCwYZn794fp-23">
          <mxGeometry x="0.1363" y="1" relative="1" as="geometry">
            <mxPoint as="offset" />
          </mxGeometry>
        </mxCell>
        <mxCell id="LoWKn4hJgZCwYZn794fp-27" style="rounded=0;orthogonalLoop=1;jettySize=auto;html=1;entryX=0.73;entryY=0.857;entryDx=0;entryDy=0;entryPerimeter=0;shape=link;fillColor=#f8cecc;strokeColor=#b85450;" edge="1" parent="1" source="LoWKn4hJgZCwYZn794fp-7" target="LoWKn4hJgZCwYZn794fp-3">
          <mxGeometry relative="1" as="geometry">
            <Array as="points">
              <mxPoint x="460" y="280" />
            </Array>
          </mxGeometry>
        </mxCell>
        <mxCell id="LoWKn4hJgZCwYZn794fp-28" value="8. Send Response Action" style="edgeLabel;html=1;align=center;verticalAlign=middle;resizable=0;points=[];" vertex="1" connectable="0" parent="LoWKn4hJgZCwYZn794fp-27">
          <mxGeometry x="-0.1356" y="1" relative="1" as="geometry">
            <mxPoint as="offset" />
          </mxGeometry>
        </mxCell>
        <mxCell id="LoWKn4hJgZCwYZn794fp-29" style="rounded=0;orthogonalLoop=1;jettySize=auto;html=1;entryX=0.14;entryY=0.714;entryDx=0;entryDy=0;entryPerimeter=0;shape=link;fillColor=#f8cecc;strokeColor=#b85450;" edge="1" parent="1" source="LoWKn4hJgZCwYZn794fp-3" target="LoWKn4hJgZCwYZn794fp-6">
          <mxGeometry relative="1" as="geometry">
            <Array as="points">
              <mxPoint x="300" y="20" />
            </Array>
          </mxGeometry>
        </mxCell>
        <mxCell id="LoWKn4hJgZCwYZn794fp-31" style="edgeStyle=orthogonalEdgeStyle;rounded=0;orthogonalLoop=1;jettySize=auto;html=1;entryX=0.219;entryY=0.038;entryDx=0;entryDy=0;entryPerimeter=0;fillColor=#f8cecc;strokeColor=#b85450;shape=link;" edge="1" parent="1" source="LoWKn4hJgZCwYZn794fp-6" target="LoWKn4hJgZCwYZn794fp-5">
          <mxGeometry relative="1" as="geometry" />
        </mxCell>
        <mxCell id="LoWKn4hJgZCwYZn794fp-32" value="8. Send Response Action" style="edgeLabel;html=1;align=center;verticalAlign=middle;resizable=0;points=[];" vertex="1" connectable="0" parent="LoWKn4hJgZCwYZn794fp-31">
          <mxGeometry x="0.6182" y="-1" relative="1" as="geometry">
            <mxPoint as="offset" />
          </mxGeometry>
        </mxCell>
        <mxCell id="LoWKn4hJgZCwYZn794fp-33" style="rounded=0;orthogonalLoop=1;jettySize=auto;html=1;entryX=0;entryY=0.85;entryDx=0;entryDy=0;entryPerimeter=0;shape=link;fillColor=#f8cecc;strokeColor=#b85450;" edge="1" parent="1" source="LoWKn4hJgZCwYZn794fp-5" target="LoWKn4hJgZCwYZn794fp-1">
          <mxGeometry relative="1" as="geometry" />
        </mxCell>
        <mxCell id="LoWKn4hJgZCwYZn794fp-34" value="8. Perform Responsive Action" style="edgeLabel;html=1;align=center;verticalAlign=middle;resizable=0;points=[];" vertex="1" connectable="0" parent="LoWKn4hJgZCwYZn794fp-33">
          <mxGeometry x="-0.0285" relative="1" as="geometry">
            <mxPoint as="offset" />
          </mxGeometry>
        </mxCell>
      </root>
    </mxGraphModel>
  </diagram>
</mxfile>
